<svg xmlns="http://www.w3.org/2000/svg" width="29.144" height="29.145" viewBox="0 0 29.144 29.145">
  <path id="パス_84" data-name="パス 84" d="M72.97,12.032a5.263,5.263,0,0,0-3.861-1.6H50.894a5.474,5.474,0,0,0-5.465,5.465V34.109a5.474,5.474,0,0,0,5.465,5.465H69.109a5.475,5.475,0,0,0,5.464-5.465V15.894A5.264,5.264,0,0,0,72.97,12.032ZM70.229,25.419H66.908V37.467H61.937V25.419H59.451V21.263h2.486V18.777a5.794,5.794,0,0,1,1.252-4.042,5.391,5.391,0,0,1,4.136-1.366h3.321v4.155H68.559q-1.063,0-1.357.37a2.147,2.147,0,0,0-.294,1.3v2.068h3.757Z" transform="translate(-45.429 -10.429)" fill="#fff"/>
</svg>
