<svg xmlns="http://www.w3.org/2000/svg" xmlns:xlink="http://www.w3.org/1999/xlink" width="32" height="32" viewBox="0 0 32 32">
  <defs>
    <clipPath id="clip-path">
      <rect id="長方形_70" data-name="長方形 70" width="32" height="32" transform="translate(0 0.33)" fill="none"/>
    </clipPath>
  </defs>
  <g id="グループ_119" data-name="グループ 119" transform="translate(0 -0.33)">
    <g id="グループ_118" data-name="グループ 118" clip-path="url(#clip-path)">
      <path id="パス_85" data-name="パス 85" d="M31.969,14.937a16,16,0,0,0-14.9-14.9V0H14.937V.036a16,16,0,0,0-14.9,14.9H0v2.134H.036a16,16,0,0,0,14.9,14.9v.038h2.134v-.038a16,16,0,0,0,14.9-14.9h.038V14.937ZM10.018,3.489A16.965,16.965,0,0,0,7.509,8.535h-3.2a13.943,13.943,0,0,1,5.706-5.047M3.2,10.669H6.948a25.341,25.341,0,0,0-.525,4.268H2.174A13.75,13.75,0,0,1,3.2,10.669m-1.022,6.4H6.423a25.341,25.341,0,0,0,.525,4.268H3.2a13.75,13.75,0,0,1-1.022-4.268m2.138,6.4H7.507a16.917,16.917,0,0,0,2.512,5.047,13.928,13.928,0,0,1-5.706-5.047m10.624,6.265c-2.194-.587-4.082-2.943-5.228-6.265h5.228Zm0-8.4H9.109a23.849,23.849,0,0,1-.553-4.268h6.38Zm0-6.4H8.557a23.849,23.849,0,0,1,.553-4.268h5.828Zm0-6.4H9.709c1.146-3.322,3.034-5.678,5.228-6.263Zm12.758,0H24.5a16.92,16.92,0,0,0-2.514-5.047A13.957,13.957,0,0,1,27.7,8.535M17.071,2.273c2.191.585,4.082,2.94,5.228,6.263H17.071Zm0,8.4H22.9a24.041,24.041,0,0,1,.555,4.268h-6.38Zm0,6.4h6.38a23.653,23.653,0,0,1-.555,4.268H17.071Zm0,12.667V23.472H22.3c-1.146,3.322-3.036,5.678-5.228,6.265m4.919-1.218A17.047,17.047,0,0,0,24.5,23.472H27.7a13.941,13.941,0,0,1-5.706,5.047m6.822-7.18H25.06a25.341,25.341,0,0,0,.525-4.268h4.246a13.688,13.688,0,0,1-1.02,4.268m-3.226-6.4a25.341,25.341,0,0,0-.525-4.268h3.751a13.75,13.75,0,0,1,1.022,4.268Z" fill="#fff"/>
    </g>
  </g>
</svg>
