<svg xmlns="http://www.w3.org/2000/svg" width="44.198" height="43.601" viewBox="0 0 44.198 43.601">
  <path id="パス_97" data-name="パス 97" d="M35.438,21.9a13.339,13.339,0,0,1-26.679,0,11.338,11.338,0,0,1,.2-2.589H0v17.52A6.713,6.713,0,0,0,6.769,43.6H36.832A6.712,6.712,0,0,0,43.6,36.831V19.311H34.642A3.136,3.136,0,0,1,35.438,21.9ZM37.229,0H7.168A6.714,6.714,0,0,0,.4,6.769v7.367H11.547a13.154,13.154,0,0,1,21.5,0H44.2V6.769A7.014,7.014,0,0,0,37.229,0Zm3.386,8.362a1.286,1.286,0,0,1-1.2,1.194H35.836a1.284,1.284,0,0,1-1.194-1.194V4.778a1.284,1.284,0,0,1,1.194-1.194H39.42a1.286,1.286,0,0,1,1.2,1.194ZM30.263,21.9A8.163,8.163,0,1,0,22.1,30.063,8.332,8.332,0,0,0,30.263,21.9Z" fill="#fff"/>
</svg>
