<svg xmlns="http://www.w3.org/2000/svg" width="39.671" height="46.899" viewBox="0 0 39.671 46.899">
  <g id="グループ_117" data-name="グループ 117" transform="translate(-2.071 -0.024)">
    <g id="グループ_115" data-name="グループ 115" transform="translate(9.772 0.024)">
      <path id="パス_78" data-name="パス 78" d="M6.313.024H9.04L10.8,7.042h.171L12.645.026H15.4L12.247,10.29v7.285H9.537V10.622Z" transform="translate(-6.313 -0.024)" fill="#fff"/>
      <path id="パス_79" data-name="パス 79" d="M11.252,5.668a3.087,3.087,0,0,1,.973-2.394,3.715,3.715,0,0,1,2.61-.893,3.324,3.324,0,0,1,2.449.942,3.242,3.242,0,0,1,.955,2.416v6.688a3.563,3.563,0,0,1-.935,2.61,3.462,3.462,0,0,1-2.576.946A3.38,3.38,0,0,1,12.2,15a3.6,3.6,0,0,1-.946-2.625l0-6.711Zm2.474,6.953a1.182,1.182,0,0,0,.263.826.924.924,0,0,0,.732.29,1.027,1.027,0,0,0,.777-.3,1.121,1.121,0,0,0,.289-.817V5.57a.883.883,0,0,0-.3-.684,1.121,1.121,0,0,0-.77-.263A1.012,1.012,0,0,0,14,4.885a.905.905,0,0,0-.276.684Z" transform="translate(-2.288 1.897)" fill="#fff"/>
      <path id="パス_80" data-name="パス 80" d="M23.094,2.561V15.506H20.687v-1.43a5.178,5.178,0,0,1-1.387,1.2,2.823,2.823,0,0,1-1.394.414,1.46,1.46,0,0,1-1.258-.577,2.916,2.916,0,0,1-.421-1.735V2.561h2.4v9.928a1.1,1.1,0,0,0,.156.661.568.568,0,0,0,.487.207,1.278,1.278,0,0,0,.67-.272,3.267,3.267,0,0,0,.744-.7V2.561Z" transform="translate(1.77 2.045)" fill="#fff"/>
    </g>
    <g id="グループ_116" data-name="グループ 116" transform="translate(2.071 20.21)">
      <path id="パス_81" data-name="パス 81" d="M20.53,17.284a.7.7,0,0,0-.606.24,1.817,1.817,0,0,0-.189,1v1.035h1.578V18.528a1.836,1.836,0,0,0-.2-1.009A.664.664,0,0,0,20.53,17.284Z" transform="translate(12.332 -6.137)" fill="#fff"/>
      <path id="パス_82" data-name="パス 82" d="M15.237,17.36a1.28,1.28,0,0,0-.341.261v7.844a1.677,1.677,0,0,0,.418.325,1.01,1.01,0,0,0,.457.109c.307,0,.4-.122.43-.165a1.166,1.166,0,0,0,.158-.721V18.33a1.414,1.414,0,0,0-.2-.835A.7.7,0,0,0,15.237,17.36Z" transform="translate(8.386 -6.163)" fill="#fff"/>
      <path id="パス_83" data-name="パス 83" d="M41.475,17.071a5.7,5.7,0,0,0-5.724-5.662q-6.767-.283-13.846-.265-7.066-.008-13.846.265a5.7,5.7,0,0,0-5.722,5.662Q2.055,20.78,2.071,24.5q-.011,3.711.269,7.428a5.694,5.694,0,0,0,5.72,5.666q6.772.28,13.846.261,7.072.016,13.846-.261a5.7,5.7,0,0,0,5.724-5.666q.283-3.714.265-7.428Q41.759,20.783,41.475,17.071ZM10.932,33.021a.273.273,0,0,1-.272.272H7.949a.273.273,0,0,1-.272-.272V18.291H5.146a.272.272,0,0,1-.272-.27V15.479a.272.272,0,0,1,.272-.272h8.318a.272.272,0,0,1,.272.272v2.541a.272.272,0,0,1-.272.27H10.932Zm9.645,0a.273.273,0,0,1-.272.272H17.9a.273.273,0,0,1-.272-.272v-.735a4.783,4.783,0,0,1-.977.748,3.038,3.038,0,0,1-1.534.448,1.722,1.722,0,0,1-1.476-.692,3.2,3.2,0,0,1-.477-1.9V20.076a.272.272,0,0,1,.272-.27h2.409a.272.272,0,0,1,.272.27V30a.905.905,0,0,0,.1.51c.016.022.065.089.27.089a1,1,0,0,0,.514-.223,2.941,2.941,0,0,0,.626-.568V20.077a.272.272,0,0,1,.272-.27H20.3a.272.272,0,0,1,.272.27V33.023h0Zm9.264-2.681a3.651,3.651,0,0,1-.626,2.282,2.206,2.206,0,0,1-1.85.837,2.9,2.9,0,0,1-2.017-.748v.312a.271.271,0,0,1-.272.272H22.646a.271.271,0,0,1-.272-.272V15.476a.27.27,0,0,1,.272-.27h2.429a.272.272,0,0,1,.272.27v4.963a3.544,3.544,0,0,1,.624-.457,2.549,2.549,0,0,1,1.247-.341,2.288,2.288,0,0,1,1.964.944,4.381,4.381,0,0,1,.654,2.58l0,7.176Zm8.9-3.484a.272.272,0,0,1-.272.272h-4.33v2.166a2.645,2.645,0,0,0,.194,1.269.587.587,0,0,0,.579.265.73.73,0,0,0,.619-.218,2.743,2.743,0,0,0,.185-1.322v-.9a.271.271,0,0,1,.272-.272h2.476a.269.269,0,0,1,.27.272v.971a4.649,4.649,0,0,1-.975,3.184,3.72,3.72,0,0,1-2.908,1.1A3.482,3.482,0,0,1,32.1,32.476a4.622,4.622,0,0,1-1-3.117V23.548a4.068,4.068,0,0,1,1.1-2.932,3.779,3.779,0,0,1,2.836-1.145,3.524,3.524,0,0,1,2.741,1.071,4.347,4.347,0,0,1,.957,3.006v3.3h.007Z" transform="translate(-2.071 -11.144)" fill="#fff"/>
    </g>
  </g>
</svg>
